<?xml version="1.0" encoding="utf-8"?>
<!-- Generator: Adobe Illustrator 27.3.1, SVG Export Plug-In . SVG Version: 6.00 Build 0)  -->
<svg version="1.1" xmlns="http://www.w3.org/2000/svg" xmlns:xlink="http://www.w3.org/1999/xlink" x="0px" y="0px"
	 viewBox="0 0 1000 266.81" style="enable-background:new 0 0 1000 266.81;" xml:space="preserve">
<style type="text/css">
	.st0{fill:#282524;}
	.st1{fill:#FFF3E5;}
	.st2{fill:#332118;}
	.st3{fill:#FFF3E5;stroke:#27252A;stroke-miterlimit:10;}
	.st4{fill:#E5D8CC;}
	.st5{fill:#1C1817;}
	.st6{fill:#CBA135;}
	.st7{fill:#001B2C;}
</style>
<g id="Calque_3">
</g>
<g id="Calque_5">
</g>
<g id="Calque_2">
	<g>
		<g>
			<path class="st6" d="M217.9,124.13c0,0-73.37-35.16-109.11-124.13c0,0,21.33,48.72,75.43,88.64
				C184.22,88.64,214.72,108.17,217.9,124.13z"/>
			<path class="st6" d="M108.07,3.6c0,0,30.91,86.07,111.51,123.83c0,0,19.75,9.2,51.7,40.22c0,0-8.92-5.89-14.82-6.31
				c0,0-20.58-24.28-47.05-30.29c0,0-11.28-1.6-24.62,1.52c-2.28,0.53-4.66,0.4-6.84-0.44c-10.07-3.87-38.5-18.12-59.04-60.95
				C118.92,71.17,105.95,42.42,108.07,3.6z"/>
		</g>
		<g>
			<path class="st1" d="M390.96,103.22c-3.38-5.13-6.83-10.23-10.35-15.28c18.45,41.25,39.19,81.41,60.61,121.18
				c-31.32-2.43-62.63-12.55-92.26-22.83c-17.72-6.63-37.08-10.03-55.91-6.96c-18.44,3.02-36.47,14.11-44.64,31.09
				c23.15-30.45,64.68-27.62,96.25-13.23c37.58,15.46,77.95,28.02,119.11,25.36C440.59,182.14,416.65,142.1,390.96,103.22z"/>
			<path class="st1" d="M215.36,210.43c-8.16-16.98-26.2-28.07-44.64-31.09c-18.82-3.07-38.19,0.33-55.91,6.96
				c-29.63,10.28-60.94,20.4-92.26,22.83c21.42-39.77,42.16-79.93,60.61-121.18c-3.52,5.05-6.97,10.15-10.35,15.28
				C47.12,142.1,23.18,182.14,0,222.56c41.15,2.67,81.53-9.9,119.11-25.36C150.64,182.81,192.23,179.98,215.36,210.43z"/>
			<path class="st1" d="M406.83,253.73c-24.3-10.12-49.59-18.27-75.55-22.89c-16.47-2.61-33.64-4.11-50.27-2.39
				c-4.44,0.5-8.69,1.28-13.17,2.68c-6.64,13.72-20.62,22.31-35.95,22.08c-15.29,0.28-29.36-8.39-35.96-22.07
				c-10.91-3.39-22.3-3.51-33.55-3.33c-36.43,1.33-71.95,12.13-105.44,25.94c0,0-14.49,6.48-16.67,7.46
				c-8.54-7.2-20.35-17.28-28.57-23.87c7.84,8.64,19.46,20.69,27.54,29.21l1.53-0.52c0,0,18.4-6.28,18.4-6.28
				c36.3-11.4,74.56-21.14,112.77-19.35c4.08,0.21,9.65,0.87,13.67,1.62c0.53,0.1,1.1,0.22,1.66,0.34
				c19.75,32.31,69.15,32.6,89.21,0.02c4.84-1.05,10.63-1.67,15.33-1.96c31.89-1.62,63.53,5.25,94.23,13.65
				c10.08,2.94,28.58,8.99,38.47,12.49l0.93-0.98c0,0,13.38-14.04,13.38-14.04c4.45-4.69,8.85-9.43,13.23-14.2
				c-8.19,6.64-20.15,16.69-28.57,23.85C419.43,259.37,406.83,253.73,406.83,253.73z"/>
			<path class="st1" d="M414.64,230.84c-20.15-3.84-39.6-9.56-58.4-17.47c-8.01-3.16-15.49-7.52-23.63-10.28
				c-1.68-0.46-6.06-1.71-7.69-2.13c-1.7-0.3-6.11-0.96-7.88-1.26c-20.83-1.95-42.71,5.46-57.94,19.48
				c21.29-13.54,47.68-18.88,71.68-10.63c7.97,2.87,15.45,7,23.4,9.95C373.46,225.82,394.01,230.6,414.64,230.84z"/>
			<path class="st1" d="M270.77,223.06c23.24-7.61,48.2-7.71,71.42,0C320.95,210.04,292.05,210.2,270.77,223.06z"/>
			<path class="st1" d="M146.73,199.69c-1.74,0.28-6.19,0.96-7.88,1.26c-1.64,0.43-5.99,1.68-7.69,2.13
				c-8.14,2.77-15.62,7.12-23.63,10.28c-18.8,7.91-38.25,13.63-58.4,17.47c20.63-0.25,41.17-5.02,60.46-12.35
				c7.95-2.94,15.43-7.08,23.4-9.95c23.99-8.25,50.38-2.92,71.68,10.63C189.43,205.16,167.55,197.75,146.73,199.69z"/>
			<path class="st1" d="M193,223.06c-21.29-12.86-50.18-13.03-71.42,0C144.8,215.35,169.76,215.45,193,223.06z"/>
		</g>
		<g>
			<path class="st6" d="M586.7,162.04c-5.35,1.85-15.43,4.29-25.5,4.29c-13.96,0-24.02-3.49-31.05-10.25
				c-7.01-6.64-10.85-16.58-10.8-27.8c0.09-25.41,18.6-39.86,43.62-39.86c9.86,0,17.45,1.87,21.23,3.67l-3.61,13.84
				c-4.23-1.82-9.37-3.24-17.77-3.24c-14.4,0-25.35,8.09-25.35,24.71c0,15.77,9.95,25.01,24.09,25.01c3.91,0,7.07-0.45,8.45-1.08
				v-16.05h-11.81v-13.47h28.5V162.04z"/>
			<path class="st6" d="M670.07,126.61c0,25.06-15.13,40.2-37.46,40.2c-22.65,0-35.98-17.13-35.98-38.92
				c0-22.83,14.69-39.95,37.18-39.95C657.26,87.94,670.07,105.48,670.07,126.61z M614.89,127.57c0,14.96,7.05,25.51,18.57,25.51
				c11.68,0,18.35-11.03,18.35-25.88c0-13.77-6.51-25.53-18.39-25.53C621.73,101.68,614.89,112.72,614.89,127.57z"/>
			<path class="st6" d="M681.47,89.19h17.27v61.9h30.39v14.47h-47.66V89.19z"/>
			<path class="st6" d="M739.38,90.24c6.36-1.03,14.63-1.64,23.28-1.64c14.49,0,23.96,2.67,31.27,8.2
				c7.93,5.92,12.91,15.24,12.91,28.74c0,14.64-5.29,24.76-12.63,30.94c-8.03,6.69-20.34,9.89-35.23,9.89
				c-8.98,0-15.37-0.54-19.62-1.13V90.24z M756.63,152.57c1.51,0.28,3.92,0.3,6.02,0.3c15.64,0.14,25.92-8.5,25.92-26.77
				c0.04-15.87-9.25-24.21-24.1-24.21c-3.78,0-6.32,0.32-7.84,0.66V152.57z"/>
			<path class="st6" d="M522.93,190.23c6.36-1.03,14.63-1.64,23.28-1.64c14.49,0,23.96,2.67,31.27,8.2
				c7.94,5.92,12.92,15.24,12.92,28.74c0,14.64-5.29,24.76-12.63,30.94c-8.03,6.69-20.34,9.89-35.23,9.89
				c-8.98,0-15.37-0.54-19.62-1.13V190.23z M540.18,252.56c1.51,0.28,3.92,0.3,6.02,0.3c15.64,0.14,25.92-8.5,25.92-26.77
				c0.04-15.87-9.25-24.21-24.1-24.21c-3.78,0-6.31,0.32-7.84,0.66V252.56z"/>
			<path class="st6" d="M647.18,233.25h-28.11v18.16h31.42v14.15H601.8v-76.38h47.05v14.15h-29.79v15.91h28.11V233.25z"/>
			<path class="st6" d="M718.35,263.46c-3.09,1.53-10.32,3.29-19.52,3.29c-26.45,0-40.08-16.53-40.08-38.3
				c0-26.04,18.66-40.46,41.72-40.46c8.98,0,15.8,1.75,18.8,3.39l-3.52,13.65c-3.43-1.5-8.34-2.87-14.51-2.87
				c-13.63,0-24.31,8.31-24.31,25.28c0,15.31,9.03,24.93,24.41,24.93c5.29,0,11.01-1.04,14.44-2.47L718.35,263.46z"/>
			<path class="st6" d="M747.01,189.18v76.38h-17.27v-76.38H747.01z"/>
			<path class="st6" d="M762.61,247.74c4.57,2.45,11.76,4.8,19.14,4.8c7.93,0,12.14-3.29,12.14-8.32c0-4.69-3.64-7.45-12.79-10.68
				c-12.74-4.52-21.07-11.46-21.07-22.62c0-13.02,10.93-22.92,28.89-22.92c8.71,0,15,1.73,19.5,3.84l-3.82,13.85
				c-3.03-1.44-8.53-3.63-15.94-3.63c-7.52,0-11.11,3.48-11.11,7.39c0,4.85,4.23,7,14.14,10.74c13.52,5.05,19.78,12.07,19.78,22.87
				c0,12.75-9.76,23.7-30.79,23.7c-8.66,0-17.32-2.35-21.57-4.75L762.61,247.74z"/>
			<path class="st6" d="M840.51,189.18v76.38h-17.27v-76.38H840.51z"/>
			<path class="st6" d="M925.39,226.61c0,25.06-15.13,40.2-37.46,40.2c-22.65,0-35.98-17.13-35.98-38.92
				c0-22.83,14.69-39.95,37.18-39.95C912.58,187.94,925.39,205.48,925.39,226.61z M870.21,227.57c0,14.96,7.05,25.51,18.57,25.51
				c11.68,0,18.35-11.03,18.35-25.88c0-13.77-6.51-25.53-18.39-25.53C877.05,201.67,870.21,212.71,870.21,227.57z"/>
			<path class="st6" d="M936.79,265.56v-76.38h20.12l15.86,28.02c4.57,8.01,9.04,17.57,12.48,26.2l0.29-0.04
				c-1.06-10.1-1.39-20.37-1.39-31.91v-22.27H1000v76.38h-18.09l-16.37-29.41c-4.55-8.24-9.56-18.03-13.27-26.98l-0.38,0.03
				c0.53,10.12,0.75,20.93,0.75,33.4v22.96H936.79z"/>
		</g>
	</g>
</g>
<g id="Calque_4">
</g>
</svg>
